<svg xmlns="http://www.w3.org/2000/svg" width="24" height="23.408" viewBox="0 0 24 23.408" class="before button_before__2GPN_"><path d="M12 0a12 12 0 00-3.793 23.387c.6.111.793-.261.793-.577v-2.234c-3.338.724-4.033-1.416-4.033-1.416a3.178 3.178 0 00-1.333-1.76c-1.089-.745.083-.729.083-.729a2.519 2.519 0 011.839 1.237 2.554 2.554 0 003.492 1 2.546 2.546 0 01.762-1.6C7.145 17 4.343 15.971 4.343 11.374a4.644 4.644 0 011.236-3.221A4.316 4.316 0 015.7 4.977s1-.322 3.3 1.23a11.374 11.374 0 016.009 0c2.291-1.552 3.3-1.23 3.3-1.23a4.312 4.312 0 01.118 3.176 4.632 4.632 0 011.235 3.221c0 4.609-2.807 5.624-5.479 5.921A2.868 2.868 0 0115 19.517v3.293c0 .319.192.694.8.576A12 12 0 0012 0z" fill="#fff"></path></svg>