<svg xmlns="http://www.w3.org/2000/svg" width="93.206" height="79.911" viewBox="0 0 93.206 79.911"><g data-name="Scribbble #2"><path data-name="Fill 149" d="M82.019 33.352a35.271 35.271 0 004.444-5.366c1.576-2.351 3.11-4.916 3.095-8.092a2.676 2.676 0 00-.782-2.16.8.8 0 00-.919-.222.586.586 0 00-.198.12c-.118.12-.082.26-.034.437.017.062.034.127.045.196.353 2.088-.731 3.701-1.778 5.263-.114.17-.228.338-.34.509a33.48 33.48 0 01-4.36 5.299 58.321 58.321 0 01-7.855 6.419 60.968 60.968 0 01-11.394 6.342c-.056.024-.113.053-.168.082-.152.08-.296.154-.428.105a.555.555 0 01-.27-.351 8.254 8.254 0 00-4.494-4.527 12.86 12.86 0 00-4.734-1.32 8.6 8.6 0 00-4.785 1.108 4.561 4.561 0 00-1.022.74 3.574 3.574 0 00-.8 3.442 7.622 7.622 0 003.407 5.231 9.24 9.24 0 005.836 1.268l.5-.05.607-.059c.05.083.098.167.147.25-.09.099-.189.202-.293.306a17.33 17.33 0 01-3.535 2.512l-.388.229A39.3 39.3 0 0141.4 55.279a54.061 54.061 0 01-10.852 1.66 111.027 111.027 0 01-14.85-.257l-.09-.007a2.383 2.383 0 00-1.243.128 1.327 1.327 0 00-.356.23.268.268 0 00-.095.236c.022.12.152.237.393.352a.647.647 0 00.136.04c.077.018.15.035.174.088s.007.1-.039.18c-.493.933.14 1.294.754 1.643l.119.068a9.089 9.089 0 003.188.925c.234.037.473.076.705.117a63.464 63.464 0 0011.17 1.2 60.4 60.4 0 0010.374-1.04 19.136 19.136 0 006.322-1.867 11.331 11.331 0 012.019-.835 11.5 11.5 0 001.924-.785 36.751 36.751 0 006.84-4.54c.184-.163.363-.333.534-.503a11.264 11.264 0 002.964-5.053 2.124 2.124 0 01.539-.975 2.219 2.219 0 01.732-.475c1.573-.655 3.248-1.41 5.277-2.36a47.987 47.987 0 007.941-4.972 53.274 53.274 0 006.039-5.125zm-20.222 9.699l6.607-3.12a21.625 21.625 0 01-6.607 3.12zM49.662 53.503c.456-.284.922-.57 1.373-.844a57.775 57.775 0 005.618-3.749c-.201.237-.42.476-.653.708a19.6 19.6 0 01-6.338 3.885zm-1.293-11.927a3.764 3.764 0 01.41-.336l.046-.034c1.77-1.326 3.8-.9 5.593-.524a7.5 7.5 0 013.81 1.789.947.947 0 01.358.589.325.325 0 01-.103.236 1.031 1.031 0 01-.44.223 13.98 13.98 0 01-6.652.52 6.278 6.278 0 01-2.896-1.291 1 1 0 01-.374-.668.7.7 0 01.25-.5z"></path><path data-name="Fill 151" d="M15.036 67.883a1.077 1.077 0 00.238-.562c.314-1.665.16-1.984-1.8-3.835a40.709 40.709 0 00-4.465-3.536c-.346-.248-.701-.504-1.05-.758a2.15 2.15 0 00-.199-.125c-.246-.141-.5-.286-.427-.691a.6.6 0 01.163-.334 1.056 1.056 0 01.576-.228l.118-.024a18.01 18.01 0 003.704-1.352c.44-.198.896-.403 1.35-.592.485-.202 1-.364 1.497-.52a16.274 16.274 0 001.773-.643c1.52-.686 3.112-1.273 4.66-1.846l.393-.14a5.84 5.84 0 00.859-.435 3.336 3.336 0 011.701-.59 1.2 1.2 0 00.885-.304c.336-.337.432-.943.295-1.85a1.365 1.365 0 00-1.507-1.322 12.1 12.1 0 00-2.3.528c-2.64.91-5.317 1.847-7.906 2.753l-.006.006c-2.223.778-4.523 1.583-6.788 2.367-.86.294-1.743.553-2.601.801l-.746.218a3.739 3.739 0 00-1.624.8c-.519.518-.56 1.242-.146 2.58a5.359 5.359 0 002.932 3.377 50.4 50.4 0 018.131 4.836c.292.224.57.475.839.717.196.177.399.36.602.528.372.31.657.368.849.176zM3.657 55.876l3.244-1.082.135-.044 3.11-1.038a20.071 20.071 0 01-6.489 2.164z"></path></g></svg>